<?xml version="1.0" standalone="no"?>
<!DOCTYPE svg PUBLIC "-//W3C//DTD SVG 20010904//EN"
 "http://www.w3.org/TR/2001/REC-SVG-20010904/DTD/svg10.dtd">
<svg version="1.0" xmlns="http://www.w3.org/2000/svg"
 width="700.000000pt" height="700.000000pt" viewBox="0 0 700.000000 700.000000"
 preserveAspectRatio="xMidYMid meet">
<metadata>
Created by potrace 1.14, written by Peter Selinger 2001-2017
</metadata>
<g transform="translate(0.000000,700.000000) scale(0.100000,-0.100000)"
fill="#000000" stroke="none">
<path d="M3279 6996 c-2 -2 -47 -6 -99 -10 -94 -6 -172 -15 -339 -42 -59 -10
-332 -82 -426 -112 -227 -74 -403 -151 -610 -267 -403 -226 -759 -530 -1049
-895 -353 -444 -592 -965 -692 -1505 -9 -49 -17 -97 -19 -105 -2 -9 -6 -43
-10 -75 -4 -33 -9 -69 -11 -80 -25 -136 -25 -677 0 -812 2 -10 7 -43 10 -74 4
-31 9 -67 11 -80 3 -13 7 -38 9 -54 18 -130 142 -568 190 -670 8 -16 24 -54
35 -84 27 -66 152 -318 186 -371 14 -22 25 -42 25 -45 0 -6 172 -265 195 -293
7 -9 51 -64 97 -122 87 -110 329 -360 436 -450 280 -238 622 -448 953 -584
260 -107 631 -207 854 -232 28 -3 56 -7 64 -10 54 -18 493 -25 671 -12 595 45
1200 254 1685 581 72 49 244 176 265 197 9 8 40 35 70 60 89 72 319 307 412
420 266 321 477 692 608 1065 28 80 86 272 94 310 3 11 14 63 25 115 19 88 24
115 37 195 2 17 6 41 9 55 2 14 7 56 11 95 3 38 8 78 11 90 3 11 6 133 8 270
3 346 -23 576 -100 885 -32 127 -101 349 -130 415 -7 17 -34 80 -60 140 -113
270 -312 592 -514 835 -188 225 -411 432 -651 605 -109 78 -274 185 -285 185
-3 0 -24 12 -48 27 -65 41 -264 138 -384 187 -143 58 -379 137 -455 151 -11 2
-27 6 -36 9 -9 3 -28 7 -42 10 -14 2 -47 9 -75 16 -27 6 -70 14 -95 17 -25 2
-61 8 -80 13 -19 5 -69 12 -110 15 -41 4 -84 9 -95 12 -24 5 -551 14 -556 9z
m231 -231 c0 -3 -44 -92 -99 -197 -54 -106 -147 -289 -206 -406 -60 -117 -117
-218 -127 -223 -15 -8 -35 0 -101 39 -138 83 -364 212 -370 212 -4 0 -4 -6 -2
-12 2 -7 6 -29 9 -48 3 -19 10 -55 15 -80 11 -56 81 -416 87 -450 3 -14 20
-104 39 -200 19 -96 36 -186 39 -200 3 -14 12 -61 20 -105 38 -192 39 -204 26
-220 -26 -31 -46 -16 -199 150 -35 39 -117 126 -181 195 -64 69 -134 144 -154
168 -39 43 -56 52 -56 29 0 -7 -11 -35 -24 -63 -13 -27 -43 -95 -66 -151 -23
-56 -49 -108 -57 -114 -11 -10 -28 -10 -76 0 -89 17 -107 21 -157 32 -25 6
-55 13 -68 15 -13 3 -74 15 -135 29 -208 45 -269 56 -273 52 -3 -2 0 -15 5
-28 6 -13 58 -172 116 -354 58 -181 108 -335 110 -342 3 -10 -25 -43 -37 -43
-11 0 -281 -131 -277 -134 2 -2 105 -86 229 -185 124 -100 234 -190 245 -199
11 -9 123 -100 249 -202 215 -174 341 -277 394 -321 12 -10 22 -23 22 -27 0
-9 -41 -124 -115 -322 -23 -63 -39 -116 -34 -118 7 -3 160 21 280 43 9 2 32 6
50 9 19 3 84 14 144 25 61 11 151 27 200 36 50 9 104 18 120 21 17 2 83 14
147 26 162 30 189 15 183 -97 -2 -27 -6 -108 -9 -180 -7 -154 -15 -297 -21
-380 -2 -33 -7 -125 -11 -205 -5 -128 -8 -171 -13 -204 -2 -14 -183 1 -284 24
-352 78 -604 179 -851 340 -180 117 -466 357 -466 390 0 8 -8 10 -21 7 -15 -4
-27 4 -50 35 -16 23 -29 45 -29 51 0 5 -31 53 -69 106 -195 272 -326 559 -401
878 -20 84 -22 92 -39 208 -22 149 -30 405 -17 515 3 19 7 62 11 95 3 33 15
105 25 160 142 717 604 1335 1240 1659 261 133 584 232 825 253 33 3 61 6 62
6 4 5 203 7 203 2z m268 -10 c56 -5 135 -18 258 -41 12 -2 62 -15 110 -29 758
-217 1347 -776 1604 -1522 55 -160 94 -320 106 -439 3 -32 7 -75 9 -94 7 -56
7 -408 0 -480 -26 -277 -128 -615 -258 -850 -17 -30 -39 -71 -50 -90 -120
-218 -363 -503 -562 -659 -44 -34 -87 -68 -95 -75 -108 -87 -351 -218 -552
-297 -89 -36 -314 -100 -398 -114 -19 -3 -53 -10 -75 -15 -22 -5 -74 -12 -115
-15 -41 -4 -81 -8 -88 -11 -18 -5 -20 5 -27 156 -5 128 -8 185 -20 395 -12
214 -19 365 -19 433 -1 67 1 76 24 94 18 15 34 18 65 15 38 -5 192 -31 245
-42 14 -3 77 -14 140 -25 63 -11 124 -22 135 -24 11 -2 40 -7 65 -11 25 -4 54
-9 65 -11 11 -3 36 -7 55 -9 19 -3 45 -8 57 -10 45 -10 255 -45 269 -45 12 0
12 4 4 20 -6 11 -30 75 -54 143 -24 67 -56 155 -71 195 -14 40 -23 80 -20 90
3 9 29 35 57 57 28 22 92 74 143 115 50 41 109 89 131 106 49 40 529 429 609
494 33 27 91 74 129 105 l68 55 -84 39 c-46 22 -113 52 -149 68 -90 41 -93 47
-70 119 112 347 214 661 218 667 6 10 -30 4 -182 -30 -60 -13 -126 -26 -145
-29 -19 -3 -38 -8 -41 -10 -3 -2 -21 -6 -40 -9 -19 -3 -87 -17 -152 -31 -66
-14 -129 -23 -140 -20 -17 4 -37 40 -89 166 -38 88 -68 165 -68 170 0 21 -19
8 -70 -47 -29 -32 -82 -90 -119 -128 -36 -39 -120 -129 -186 -200 -170 -182
-173 -185 -187 -185 -7 0 -20 5 -28 10 -16 10 -6 78 56 395 14 72 27 141 30
155 2 14 7 36 10 50 3 14 8 36 10 50 3 14 18 95 35 180 17 85 33 169 36 185 2
17 11 62 19 100 8 39 17 86 20 105 3 19 9 50 14 68 5 17 6 32 3 32 -3 0 -109
-59 -235 -132 -225 -129 -229 -131 -248 -112 -16 17 -420 802 -420 817 0 6
153 2 258 -8z"/>
</g>
</svg>
