<?xml version="1.0" encoding="UTF-8" standalone="no"?>
<!-- Svg Vector Icons : http://www.onlinewebfonts.com/icon -->

<svg
   version="1.1"
   x="0px"
   y="0px"
   viewBox="0 0 1000 1000"
   fill="#cdcdcd"
   xml:space="preserve"
   id="svg2252"
   sodipodi:docname="connected.svg"
   inkscape:version="1.1.2 (0a00cf5339, 2022-02-04)"
   xmlns:inkscape="http://www.inkscape.org/namespaces/inkscape"
   xmlns:sodipodi="http://sodipodi.sourceforge.net/DTD/sodipodi-0.dtd"
   xmlns="http://www.w3.org/2000/svg"
   xmlns:svg="http://www.w3.org/2000/svg"><defs
   id="defs2256" /><sodipodi:namedview
   id="namedview2254"
   pagecolor="#505050"
   bordercolor="#ffffff"
   borderopacity="1"
   inkscape:pageshadow="0"
   inkscape:pageopacity="0"
   inkscape:pagecheckerboard="1"
   showgrid="false"
   inkscape:zoom="0.464"
   inkscape:cx="500"
   inkscape:cy="500"
   inkscape:window-width="1366"
   inkscape:window-height="697"
   inkscape:window-x="0"
   inkscape:window-y="0"
   inkscape:window-maximized="1"
   inkscape:current-layer="svg2252" />
<metadata
   id="metadata2246"> Svg Vector Icons : http://www.onlinewebfonts.com/icon </metadata>
<g
   id="g2250"
   style="fill:#ff0000"><path
     d="M 216.8,277.8 22.6,83.7 C 5.7,66.9 5.7,39.5 22.6,22.7 39.4,5.8 66.8,5.8 83.6,22.7 l 194.2,194.2 c 118.3,-88.7 286.9,-79.2 394.5,28.3 L 245.1,672.3 C 137.6,564.7 128.1,396.1 216.8,277.8 Z m 548.8,60.7 C 873.2,446.1 882.7,614.7 794,733 l 183.4,183.4 c 16.8,16.8 16.8,44.2 0,61 -16.8,16.9 -44.2,16.9 -61,0 L 733,794 C 614.7,882.7 446.1,873.2 338.5,765.7 L 430,674.2 353.7,597.9 c -25.3,-25.3 -25.3,-66.3 0,-91.5 25.3,-25.3 66.3,-25.3 91.5,0 l 76.3,76.3 61,-61 -76.3,-76.3 c -25.3,-25.3 -25.3,-66.3 0,-91.5 25.3,-25.3 66.3,-25.3 91.5,0 l 76.3,76.3 z"
     id="path2248"
     style="fill:#ff0000" /></g>
</svg>
