<?xml version="1.0" encoding="UTF-8" standalone="no"?>
<!-- Svg Vector Icons : http://www.onlinewebfonts.com/icon -->

<svg
   version="1.1"
   x="0px"
   y="0px"
   viewBox="0 0 1000 1000"
   fill="#cdcdcd"
   xml:space="preserve"
   id="svg2737"
   sodipodi:docname="disconnected.svg"
   inkscape:version="1.1.2 (0a00cf5339, 2022-02-04)"
   xmlns:inkscape="http://www.inkscape.org/namespaces/inkscape"
   xmlns:sodipodi="http://sodipodi.sourceforge.net/DTD/sodipodi-0.dtd"
   xmlns="http://www.w3.org/2000/svg"
   xmlns:svg="http://www.w3.org/2000/svg"><defs
   id="defs2741" /><sodipodi:namedview
   id="namedview2739"
   pagecolor="#505050"
   bordercolor="#ffffff"
   borderopacity="1"
   inkscape:pageshadow="0"
   inkscape:pageopacity="0"
   inkscape:pagecheckerboard="1"
   showgrid="false"
   inkscape:zoom="0.464"
   inkscape:cx="500"
   inkscape:cy="500"
   inkscape:window-width="1366"
   inkscape:window-height="697"
   inkscape:window-x="0"
   inkscape:window-y="0"
   inkscape:window-maximized="1"
   inkscape:current-layer="svg2737" />
<metadata
   id="metadata2731"> Svg Vector Icons : http://www.onlinewebfonts.com/icon </metadata>
<g
   id="g2735"
   style="fill:#ff0000"><path
     d="M 173.7,233.4 22.4,82.1 C 5.9,65.6 5.9,38.9 22.4,22.4 38.9,5.9 65.6,5.9 82.1,22.4 L 233.5,173.8 C 349.3,87 514.2,96.3 619.5,201.5 l -418,417.9 C 96.2,514.1 87,349.2 173.7,233.4 Z m 624.8,147.2 c 105.3,105.3 114.5,270.2 27.7,386 L 977.6,918 c 16.5,16.5 16.5,43.2 0,59.7 -16.5,16.5 -43.2,16.5 -59.7,0 L 766.6,826.3 c -115.8,86.8 -280.7,77.5 -386,-27.7 L 470.2,709 395.6,634.4 c -24.7,-24.7 -24.7,-64.8 0,-89.6 24.7,-24.7 64.8,-24.7 89.6,0 l 74.6,74.6 59.7,-59.7 -74.6,-74.6 c -24.7,-24.7 -24.7,-64.8 0,-89.6 24.7,-24.7 64.8,-24.7 89.6,0 l 74.6,74.6 z"
     id="path2733"
     style="fill:#ff0000" /></g>
</svg>
